<?xml version="1.0" encoding="utf-8"?>
<!-- Generator: Adobe Illustrator 21.0.0, SVG Export Plug-In . SVG Version: 6.00 Build 0)  -->
<svg version="1.1" id="Capa_1" xmlns:x="&ns_extend;" xmlns:i="&ns_ai;" xmlns:graph="&ns_graphs;"
	 xmlns="http://www.w3.org/2000/svg" xmlns:xlink="http://www.w3.org/1999/xlink" x="0px" y="0px" viewBox="0 0 12 12"
	 style="enable-background:new 0 0 12 12;" xml:space="preserve">
<style type="text/css">
	.st0{fill:#FFFFFF;}
	.st1{fill:#FF8A00;}
</style>
<metadata>
	<sfw  xmlns="&ns_sfw;">
		<slices></slices>
		<sliceSourceBounds  bottomLeftOrigin="true" height="12" width="12" x="0" y="0"></sliceSourceBounds>
	</sfw>
</metadata>
<g>
	<path class="st0" d="M9,6C9,6,9,6,9,6L9,6L9,6L9,6 M8.9,6C8.9,6,8.9,6,8.9,6C8.9,6,9,6,8.9,6C9,6,9,6,8.9,6C9,6,8.9,6,8.9,6"/>
	<path class="st0" d="M8.9,6C8.9,6,9,6,8.9,6C9,6,8.9,6,8.9,6C8.9,6,8.9,6,8.9,6"/>
	<polyline class="st0" points="8.9,6 8.9,6 8.9,6 8.9,6 8.9,6 	"/>
	<path class="st0" d="M9,6C9,6,9,6,9,6L9,6L9,6L9,6 M8.9,6C8.9,6,8.9,6,8.9,6C8.9,6,9,6,8.9,6C9,6,9,6,8.9,6C9,6,8.9,6,8.9,6"/>
	<path class="st0" d="M8.9,6C8.9,6,9,6,8.9,6C9,6,8.9,6,8.9,6C8.9,6,8.9,6,8.9,6"/>
	<polyline class="st0" points="8.9,6 8.9,6 8.9,6 8.9,6 8.9,6 	"/>
	<path class="st1" d="M12,6c0,3.3-2.7,6-6,6S0,9.3,0,6c0-3.3,2.7-6,6-6S12,2.7,12,6"/>
	<path class="st0" d="M7.5,6C7.5,6,7.5,6,7.5,6L7.5,6L7.5,6C7.5,6,7.5,6,7.5,6 M7.5,6C7.5,6,7.5,6,7.5,6C7.5,6,7.5,6,7.5,6
		C7.5,6,7.5,6,7.5,6C7.5,6,7.5,6,7.5,6"/>
	<path class="st0" d="M7.5,6C7.5,6,7.5,6,7.5,6C7.5,6,7.5,6,7.5,6C7.5,6,7.5,6,7.5,6"/>
	<polyline class="st0" points="7.5,6 7.5,6 7.5,6 7.5,6 7.5,6 	"/>
	<g>
		<g>
			<g>
				<path class="st0" d="M8.6,3.6H4.1c0,0,0,0,0,0L3.9,3.2C3.9,3.1,3.8,3,3.7,3H3.1C3.1,3,3,3.1,3,3.1v0.3c0,0.1,0.1,0.1,0.1,0.1
					h0.3l0.8,2.8L4,6.7C3.9,6.9,3.8,7.1,3.9,7.2C4,7.5,4.2,7.6,4.4,7.6h3.9c0.1,0,0.1-0.1,0.1-0.1V7.2c0-0.1-0.1-0.1-0.1-0.1H4.4
					l0.4-0.5c0,0,0,0,0,0h2.6c0.2,0,0.4-0.1,0.5-0.3l0.9-2C9,4.2,9,4.1,9,4v0C9,3.7,8.8,3.6,8.6,3.6z"/>
				<circle class="st0" cx="4.6" cy="8.4" r="0.5"/>
				<circle class="st0" cx="7.9" cy="8.4" r="0.5"/>
			</g>
		</g>
	</g>
</g>
</svg>
