<svg id="Capa_1" data-name="Capa 1" xmlns="http://www.w3.org/2000/svg" viewBox="0 0 11.96 11.96"><title>carro</title><path d="M9,6H9m0,0h0" transform="translate(-0.02 -0.02)" fill="#fff"/><path d="M8.94,6h0" transform="translate(-0.02 -0.02)" fill="#fff"/><polyline points="8.93 5.98 8.93 5.98 8.93 5.98 8.93 5.98 8.93 5.98" fill="#fff"/><path d="M9,6H9m0,0h0" transform="translate(-0.02 -0.02)" fill="#fff"/><path d="M8.94,6h0" transform="translate(-0.02 -0.02)" fill="#fff"/><polyline points="8.93 5.98 8.93 5.98 8.93 5.98 8.93 5.98 8.93 5.98" fill="#fff"/><path d="M12,6A6,6,0,1,1,6,0a6,6,0,0,1,6,6" transform="translate(-0.02 -0.02)" fill="#ff8a00"/><path d="M7.54,6h0m0,0h0" transform="translate(-0.02 -0.02)" fill="#fff"/><path d="M7.52,6h0" transform="translate(-0.02 -0.02)" fill="#fff"/><polyline points="7.52 5.98 7.52 5.98 7.52 5.98 7.52 5.98 7.52 5.98" fill="#fff"/><path d="M8.55,3.55H4.06L3.95,3.2A.27.27,0,0,0,3.69,3H3.15A.14.14,0,0,0,3,3.15v.27a.14.14,0,0,0,.14.14h.34l.85,2.79L4,6.71a.57.57,0,0,0-.12.53.54.54,0,0,0,.52.39H8.31a.14.14,0,0,0,.14-.14V7.22a.14.14,0,0,0-.14-.14H4.42l.43-.5,0,0H7.51A.54.54,0,0,0,8,6.23l.95-2A.44.44,0,0,0,9,4V4A.44.44,0,0,0,8.55,3.55Z" transform="translate(-0.02 -0.02)" fill="#fff"/><circle cx="4.62" cy="8.43" r="0.54" fill="#fff"/><circle cx="7.88" cy="8.43" r="0.54" fill="#fff"/></svg>