<svg id="ad63fb3c-1dcd-4415-a7d6-687381d73223" data-name="Capa 1" xmlns="http://www.w3.org/2000/svg" width="12" height="12" viewBox="0 0 12 12">
  <defs>
    <style>
      .bb702dc6-05c6-460b-b9db-6c7b8f6dc93b, .e8d09c4d-4483-4713-aded-7004182311a1 {
        fill: #fff;
      }

      .b9c6ce64-a9d2-4152-b9e8-f87c45e478b1 {
        fill: #ff8a00;
      }

      .e8d09c4d-4483-4713-aded-7004182311a1 {
        fill-rule: evenodd;
      }
    </style>
  </defs>
  <title>user</title>
  <path class="bb702dc6-05c6-460b-b9db-6c7b8f6dc93b" d="M9,6H9M9,6H9" transform="translate(0.02 0.02)"/>
  <path class="bb702dc6-05c6-460b-b9db-6c7b8f6dc93b" d="M8.92,6h0" transform="translate(0.02 0.02)"/>
  <polyline class="bb702dc6-05c6-460b-b9db-6c7b8f6dc93b" points="8.95 6 8.95 6 8.95 6 8.95 6 8.95 6"/>
  <path class="bb702dc6-05c6-460b-b9db-6c7b8f6dc93b" d="M9,6H9M9,6H9" transform="translate(0.02 0.02)"/>
  <path class="bb702dc6-05c6-460b-b9db-6c7b8f6dc93b" d="M8.92,6h0" transform="translate(0.02 0.02)"/>
  <polyline class="bb702dc6-05c6-460b-b9db-6c7b8f6dc93b" points="8.95 6 8.95 6 8.95 6 8.95 6 8.95 6"/>
  <path class="b9c6ce64-a9d2-4152-b9e8-f87c45e478b1" d="M12,6A6,6,0,1,1,6,0a6,6,0,0,1,6,6" transform="translate(0.02 0.02)"/>
  <path class="e8d09c4d-4483-4713-aded-7004182311a1" d="M8.8,8.78a.52.52,0,0,0,.53-.53c0-.52-.53-2.1-3.16-2.1S3,7.73,3,8.25a.51.51,0,0,0,.52.53Zm-5.26-.5Zm5.26,0ZM7.75,4A1.58,1.58,0,1,1,6.17,2.47,1.58,1.58,0,0,1,7.75,4Z" transform="translate(0.02 0.02)"/>
  <path class="bb702dc6-05c6-460b-b9db-6c7b8f6dc93b" d="M7.52,6h0m0,0h0" transform="translate(0.02 0.02)"/>
  <path class="bb702dc6-05c6-460b-b9db-6c7b8f6dc93b" d="M7.5,6h0" transform="translate(0.02 0.02)"/>
  <polyline class="bb702dc6-05c6-460b-b9db-6c7b8f6dc93b" points="7.54 6 7.54 6 7.54 6 7.54 6 7.54 6"/>
</svg>
